<svg xmlns="http://www.w3.org/2000/svg" viewBox="0 0 48 48" width="48" height="48">
  <!-- Background -->
  <rect width="48" height="48" rx="8" fill="#1f2937"/>
  
  <!-- Calendar grid with more spacing for ICO format -->
  <!-- Row 1 -->
  <rect x="6" y="6" width="4" height="4" rx="1" fill="#374151"/>
  <rect x="12" y="6" width="4" height="4" rx="1" fill="#22c55e"/>
  <rect x="18" y="6" width="4" height="4" rx="1" fill="#16a34a"/>
  <rect x="24" y="6" width="4" height="4" rx="1" fill="#22c55e"/>
  <rect x="30" y="6" width="4" height="4" rx="1" fill="#374151"/>
  <rect x="36" y="6" width="4" height="4" rx="1" fill="#15803d"/>
  
  <!-- Row 2 -->
  <rect x="6" y="12" width="4" height="4" rx="1" fill="#22c55e"/>
  <rect x="12" y="12" width="4" height="4" rx="1" fill="#374151"/>
  <rect x="18" y="12" width="4" height="4" rx="1" fill="#22c55e"/>
  <rect x="24" y="12" width="4" height="4" rx="1" fill="#16a34a"/>
  <rect x="30" y="12" width="4" height="4" rx="1" fill="#22c55e"/>
  <rect x="36" y="12" width="4" height="4" rx="1" fill="#22c55e"/>
  
  <!-- Row 3 -->
  <rect x="6" y="18" width="4" height="4" rx="1" fill="#374151"/>
  <rect x="12" y="18" width="4" height="4" rx="1" fill="#16a34a"/>
  <rect x="18" y="18" width="4" height="4" rx="1" fill="#374151"/>
  <rect x="24" y="18" width="4" height="4" rx="1" fill="#15803d"/>
  <rect x="30" y="18" width="4" height="4" rx="1" fill="#22c55e"/>
  <rect x="36" y="18" width="4" height="4" rx="1" fill="#374151"/>
  
  <!-- Row 4 -->
  <rect x="6" y="24" width="4" height="4" rx="1" fill="#22c55e"/>
  <rect x="12" y="24" width="4" height="4" rx="1" fill="#22c55e"/>
  <rect x="18" y="24" width="4" height="4" rx="1" fill="#16a34a"/>
  <rect x="24" y="24" width="4" height="4" rx="1" fill="#374151"/>
  <rect x="30" y="24" width="4" height="4" rx="1" fill="#15803d"/>
  <rect x="36" y="24" width="4" height="4" rx="1" fill="#22c55e"/>
  
  <!-- Row 5 -->
  <rect x="6" y="30" width="4" height="4" rx="1" fill="#374151"/>
  <rect x="12" y="30" width="4" height="4" rx="1" fill="#374151"/>
  <rect x="18" y="30" width="4" height="4" rx="1" fill="#22c55e"/>
  <rect x="24" y="30" width="4" height="4" rx="1" fill="#16a34a"/>
  <rect x="30" y="30" width="4" height="4" rx="1" fill="#374151"/>
  <rect x="36" y="30" width="4" height="4" rx="1" fill="#15803d"/>
  
  <!-- Row 6 -->
  <rect x="6" y="36" width="4" height="4" rx="1" fill="#16a34a"/>
  <rect x="12" y="36" width="4" height="4" rx="1" fill="#22c55e"/>
  <rect x="18" y="36" width="4" height="4" rx="1" fill="#374151"/>
  <rect x="24" y="36" width="4" height="4" rx="1" fill="#22c55e"/>
  <rect x="30" y="36" width="4" height="4" rx="1" fill="#16a34a"/>
  <rect x="36" y="36" width="4" height="4" rx="1" fill="#22c55e"/>
</svg>