<svg xmlns="http://www.w3.org/2000/svg" viewBox="0 0 16 16" width="16" height="16">
  <!-- Background -->
  <rect width="16" height="16" rx="2" fill="#1f2937"/>
  
  <!-- Simplified 4x4 grid for 16x16 -->
  <rect x="2" y="2" width="2" height="2" rx="0.3" fill="#374151"/>
  <rect x="5" y="2" width="2" height="2" rx="0.3" fill="#22c55e"/>
  <rect x="8" y="2" width="2" height="2" rx="0.3" fill="#16a34a"/>
  <rect x="11" y="2" width="2" height="2" rx="0.3" fill="#22c55e"/>
  
  <rect x="2" y="5" width="2" height="2" rx="0.3" fill="#22c55e"/>
  <rect x="5" y="5" width="2" height="2" rx="0.3" fill="#374151"/>
  <rect x="8" y="5" width="2" height="2" rx="0.3" fill="#15803d"/>
  <rect x="11" y="5" width="2" height="2" rx="0.3" fill="#22c55e"/>
  
  <rect x="2" y="8" width="2" height="2" rx="0.3" fill="#374151"/>
  <rect x="5" y="8" width="2" height="2" rx="0.3" fill="#16a34a"/>
  <rect x="8" y="8" width="2" height="2" rx="0.3" fill="#22c55e"/>
  <rect x="11" y="8" width="2" height="2" rx="0.3" fill="#374151"/>
  
  <rect x="2" y="11" width="2" height="2" rx="0.3" fill="#22c55e"/>
  <rect x="5" y="11" width="2" height="2" rx="0.3" fill="#22c55e"/>
  <rect x="8" y="11" width="2" height="2" rx="0.3" fill="#374151"/>
  <rect x="11" y="11" width="2" height="2" rx="0.3" fill="#15803d"/>
</svg>